<?xml version="1.0" encoding="UTF-8" standalone="no"?>
<svg
   xmlns:dc="http://purl.org/dc/elements/1.1/"
   xmlns:cc="http://creativecommons.org/ns#"
   xmlns:rdf="http://www.w3.org/1999/02/22-rdf-syntax-ns#"
   xmlns:svg="http://www.w3.org/2000/svg"
   xmlns="http://www.w3.org/2000/svg"
   xmlns:xlink="http://www.w3.org/1999/xlink"
   xmlns:sodipodi="http://sodipodi.sourceforge.net/DTD/sodipodi-0.dtd"
   xmlns:inkscape="http://www.inkscape.org/namespaces/inkscape"
   width="297mm"
   height="210mm"
   viewBox="0 0 297 210"
   version="1.1"
   id="svg8"
   inkscape:version="1.0 (4035a4fb49, 2020-05-01)"
   sodipodi:docname="YZplanGUIdesign.svg">
  <defs
     id="defs2">
    <linearGradient
       id="linearGradient861"
       inkscape:collect="always">
      <stop
         id="stop857"
         offset="0"
         style="stop-color:#000000;stop-opacity:1;" />
      <stop
         id="stop859"
         offset="1"
         style="stop-color:#000000;stop-opacity:0;" />
    </linearGradient>
    <linearGradient
       gradientTransform="translate(-25.657874,-3.7417734)"
       gradientUnits="userSpaceOnUse"
       y2="-15.745974"
       x2="239.5198"
       y1="-15.745974"
       x1="125.77791"
       id="linearGradient863"
       xlink:href="#linearGradient861"
       inkscape:collect="always" />
  </defs>
  <sodipodi:namedview
     id="base"
     pagecolor="#ffffff"
     bordercolor="#666666"
     borderopacity="1.0"
     inkscape:pageopacity="0.0"
     inkscape:pageshadow="2"
     inkscape:zoom="3.8904364"
     inkscape:cx="-308.3514"
     inkscape:cy="681.69087"
     inkscape:document-units="mm"
     inkscape:current-layer="layer1"
     inkscape:document-rotation="0"
     showgrid="false"
     inkscape:snap-object-midpoints="false"
     inkscape:window-width="1366"
     inkscape:window-height="745"
     inkscape:window-x="-8"
     inkscape:window-y="-8"
     inkscape:window-maximized="1" />
  <metadata
     id="metadata5">
    <rdf:RDF>
      <cc:Work
         rdf:about="">
        <dc:format>image/svg+xml</dc:format>
        <dc:type
           rdf:resource="http://purl.org/dc/dcmitype/StillImage" />
        <dc:title />
      </cc:Work>
    </rdf:RDF>
  </metadata>
  <g
     inkscape:label="图层 1"
     inkscape:groupmode="layer"
     id="layer1">
    <rect
       id="rect10"
       width="289.72015"
       height="202.5903"
       x="3.2072344"
       y="3.7417734"
       style="stroke-width:0.264583;fill:#f9f9f9;stroke:#f9f9f9;stroke-opacity:1" />
    <rect
       style="fill:#f9f9f9;stroke:#000000;stroke-width:0.170256;stroke-opacity:1"
       id="rect838"
       width="289.81448"
       height="5.974256"
       x="3.1600709"
       y="3.6946099" />
    <rect
       style="fill:#f9f9f9;stroke:#000000;stroke-width:0.264583;stroke-opacity:1"
       id="rect840"
       width="196.17583"
       height="151.8091"
       x="84.457169"
       y="41.159508" />
    <circle
       style="fill:#f9f9f9;stroke:#000000;stroke-width:0.264583;stroke-opacity:1"
       id="path842"
       cx="-80.448128"
       cy="98.087914"
       r="30.201456" />
    <path
       id="path842-6"
       style="fill:#f9f9f9;stroke:#000000;stroke-width:0.102229;stroke-opacity:1"
       sodipodi:type="arc"
       sodipodi:cx="48.578747"
       sodipodi:cy="-117.18641"
       sodipodi:rx="11.669188"
       sodipodi:ry="11.669188"
       sodipodi:start="0"
       sodipodi:end="5.8151397"
       sodipodi:arc-type="slice"
       d="m 60.247934,-117.18641 a 11.669188,11.669188 0 0 1 -10.306873,11.58939 11.669188,11.669188 0 0 1 -12.713416,-8.88339 11.669188,11.669188 0 0 1 7.338428,-13.66357 11.669188,11.669188 0 0 1 14.42686,5.6931 l -10.414186,5.26447 z"
       transform="rotate(-163.15651)" />
    <circle
       style="fill:#e6e6e6;stroke:#000000;stroke-width:0.264583;stroke-opacity:1"
       id="path889"
       cx="27.962851"
       cy="193.68758"
       r="12.473214"
       transform="rotate(31.660698)" />
    <ellipse
       cy="193.68758"
       cx="27.962851"
       id="path889-9"
       style="fill:#ffffff;stroke:#000000;stroke-width:0.264583;stroke-opacity:1;fill-opacity:0.5"
       rx="5.123302"
       ry="12.473214"
       transform="rotate(31.660698)" />
    <ellipse
       ry="12.473214"
       rx="5.123302"
       style="fill:#ffffff;stroke:#000000;stroke-width:0.264583;stroke-opacity:1;fill-opacity:0.5"
       id="path889-9-3"
       cx="-153.75696"
       cy="121.06032"
       transform="rotate(-28.339302)" />
    <ellipse
       ry="12.473214"
       rx="5.123302"
       style="fill:#ffffff;stroke:#000000;stroke-width:0.264583;stroke-opacity:1;fill-opacity:0.5"
       id="path889-9-8"
       cx="181.71979"
       cy="72.627258"
       transform="rotate(91.660698)" />
    <path
       style="fill:#800080;fill-opacity:1;stroke:#800080;stroke-width:0.264583;stroke-opacity:1"
       id="path983"
       d="m -88.30144,180.31639 c -0.01982,0.1663 0.03254,0.31706 0.07023,0.47589 0.02331,0.0982 0.03317,0.19984 0.06374,0.29604 0.03608,0.11352 0.09393,0.21904 0.13543,0.33069 0.04524,0.12169 0.08311,0.24601 0.124666,0.36901 0.193646,0.52314 0.426824,1.02809 0.687973,1.52034 0.01984,0.0397 0.07605,0.0117 0.05621,-0.0281 v 0 c -0.119414,-0.2555 -0.226459,-0.51672 -0.348557,-0.77095 -0.336338,-0.70032 -0.06134,-0.02 -0.335296,-0.74466 -0.04395,-0.12118 -0.08718,-0.24262 -0.13186,-0.36354 -0.04091,-0.11072 -0.09115,-0.21824 -0.124897,-0.33135 -0.04765,-0.15973 -0.06365,-0.33358 -0.09505,-0.49725 -0.0098,-0.0511 -0.02537,-0.10105 -0.03447,-0.15229 -0.0061,-0.0343 -0.0074,-0.0693 -0.01106,-0.10387 0,-0.0404 -0.05708,-0.0404 -0.05708,0 z" />
    <path
       style="fill:#800080;fill-opacity:1;stroke:#800080;stroke-width:0.264583;stroke-opacity:1"
       id="path985"
       d="m -88.119187,183.20246 c 0.02387,0.02 0.05192,0.0359 0.0716,0.0601 0.034,0.0418 0.054,0.0937 0.08776,0.13569 0.04005,0.0498 0.09255,0.0887 0.132685,0.13839 0.04596,0.057 0.07998,0.12278 0.12477,0.18066 0.479475,0.61973 -0.193725,-0.30399 0.305771,0.3909 0.207092,0.16109 0.308623,0.41078 0.490027,0.59407 0.04658,0.0471 0.105688,0.08 0.155556,0.12352 0.214017,0.18693 0.008,0.0434 0.227656,0.18461 -0.01215,0.0106 0.09838,0.10467 0.13135,0.068 0.10261,-0.1141 0.02408,-0.56866 0.02032,-0.67708 -0.0051,-0.14719 -0.0013,-0.29456 -0.0019,-0.44184 -0.0705,-1.09141 -0.0065,0.10178 -0.02511,-1.00555 -0.0027,-0.16059 -0.02209,-0.32066 -0.02368,-0.48126 -0.0016,-0.15546 0.01498,-0.31071 0.01423,-0.46616 -0.02339,-0.51545 -0.01937,-0.27028 -0.01606,-0.73543 -5.29e-4,-0.0523 -0.07443,-0.0517 -0.07398,5.2e-4 v 0 c 0.05943,0.90032 -0.0079,-0.31619 5.29e-4,0.73621 0.0013,0.15553 0.0241,0.31027 0.02819,0.46575 0.01302,0.49576 -0.0259,0.99337 0.02225,1.48849 0.02199,0.38824 0.02844,0.42298 0.03399,0.78307 0.0011,0.0715 -0.01011,0.14367 -5.29e-4,0.21453 0.0028,0.0203 0.03234,0.0293 0.03647,0.0494 0.0084,0.0409 -0.275752,-0.15778 -0.119746,-0.0364 -0.03118,-0.0308 -0.06006,-0.0642 -0.09354,-0.0925 -0.03906,-0.033 -0.08848,-0.0538 -0.123526,-0.0911 -0.0444,-0.0472 -0.06673,-0.11249 -0.111742,-0.15912 -0.05477,-0.0567 -0.128987,-0.092 -0.18465,-0.14789 -0.05888,-0.0591 -0.281916,-0.35681 -0.329414,-0.41921 -0.05891,-0.0642 -0.121907,-0.12482 -0.176729,-0.19252 -0.04928,-0.0609 -0.08799,-0.1296 -0.1349,-0.19229 -0.04373,-0.0584 -0.09308,-0.11253 -0.136877,-0.17092 -0.08357,-0.11141 -0.121211,-0.18956 -0.215728,-0.28826 -0.02162,-0.0226 -0.04904,-0.0388 -0.07356,-0.0582 -0.02943,-0.0294 -0.07104,0.0122 -0.04162,0.0416 z" />
    <path
       style="fill:#800080;fill-opacity:1;stroke:#800080;stroke-width:0.264583;stroke-opacity:1"
       id="path995"
       d="m -67.495774,178.36693 c -0.05042,-0.18003 -0.05743,-0.36699 -0.08703,-0.55068 -0.01103,-0.0685 -0.02997,-0.13573 -0.0373,-0.2047 -0.0079,-0.0746 -0.0056,-0.15002 -0.0084,-0.22504 -0.01535,-0.0757 -0.03067,-0.15141 -0.046,-0.22712 -0.0073,-0.0787 -0.0081,-0.15831 -0.02188,-0.23616 -0.01339,-0.0759 -0.0425,-0.1482 -0.05926,-0.22339 -0.01651,-0.0741 -0.02053,-0.15093 -0.04049,-0.22421 -0.104439,-0.28415 -0.06152,-0.14091 -0.12985,-0.42938 -0.103761,-0.15431 -0.188296,-0.32144 -0.269171,-0.48866 -0.02455,-0.0508 -0.03844,-0.10708 -0.06908,-0.15442 -0.141896,-0.15592 -0.07954,-0.0721 -0.187462,-0.25119 -0.124352,-0.15757 -0.06156,-0.0799 -0.18831,-0.23313 -0.0186,-0.0214 -0.04892,0.005 -0.03032,0.0263 v 0 c 0.121882,0.1541 0.06384,0.0742 0.173878,0.23993 0.218983,0.41779 -0.08269,-0.13534 0.168924,0.25579 0.0297,0.0462 0.04704,0.0993 0.07395,0.14718 0.02782,0.0495 0.06536,0.0934 0.09007,0.14446 0.05491,0.1135 0.07052,0.24371 0.139872,0.35145 0.149098,0.30359 0.05094,0.0803 0.163957,0.40696 0.02485,0.0718 0.06653,0.13888 0.0789,0.21384 0.0127,0.077 -0.01138,0.15632 -0.005,0.23411 0.01273,0.15451 0.07575,0.3022 0.07878,0.45839 0.04304,0.53294 -0.01564,-0.0704 0.06207,0.42712 0.0096,0.0611 0.0089,0.1235 0.01662,0.18491 0.01156,0.0921 0.04216,0.1819 0.04678,0.27465 0.0013,0.0279 -0.0071,0.0553 -0.01072,0.083 0,0.0682 0.09639,0.0682 0.09639,0 z" />
    <path
       style="fill:#800080;fill-opacity:1;stroke:#800080;stroke-width:0.264583;stroke-opacity:1"
       id="path997"
       d="m -67.490273,174.93303 c -0.15267,-0.0192 0.03493,0.0142 -0.13317,-0.0556 -0.03304,-0.0137 -0.07149,-0.0108 -0.104463,-0.0247 -0.116747,-0.0492 -0.07622,-0.0665 -0.182692,-0.13288 -0.03397,-0.0212 -0.07296,-0.0329 -0.109442,-0.0494 -0.03788,-0.0149 -0.08065,-0.0209 -0.113639,-0.0448 -0.03289,-0.0238 -0.04357,-0.0719 -0.07781,-0.0937 -0.03186,-0.0203 -0.07652,-0.009 -0.110299,-0.0262 -0.03113,-0.0156 -0.04778,-0.0527 -0.07877,-0.0686 -0.02879,-0.0148 -0.06326,-0.0136 -0.09489,-0.0204 -0.02929,-0.0169 -0.05859,-0.0338 -0.08788,-0.0508 -0.01606,0.0444 -0.280414,-0.0443 -0.2872,-0.0433 -0.154305,0.0222 -0.126614,0.22344 -0.122277,0.31934 -0.0085,0.0721 -0.03323,0.14415 -0.02545,0.21635 0.0094,0.0874 0.05336,0.16768 0.07594,0.25268 0.07239,0.27244 0.121066,0.55175 0.182917,0.82671 0.0085,0.0355 0.05872,0.0235 0.0502,-0.012 v 0 c -0.07463,-0.36357 -0.03972,-0.17941 -0.104362,-0.55254 -0.04803,-0.24165 -0.125339,-0.47958 -0.129654,-0.72819 0.0075,-0.0432 0.0176,-0.0861 0.02252,-0.12972 0.0031,-0.0279 -0.01024,-0.0588 0.0016,-0.0843 0.02753,-0.0593 0.183644,-0.0284 0.22058,-0.0126 0.03028,0.013 0.05415,0.0375 0.08123,0.0563 0.08503,0.0165 0.199253,0.025 0.276911,0.0651 0.03182,0.0164 0.05178,0.052 0.08472,0.066 0.03767,0.0161 0.08851,-0.003 0.12092,0.0216 0.03648,0.0282 0.04338,0.0813 0.06507,0.12196 0.455305,0.1647 -0.193932,-0.0815 0.213077,0.10841 0.03455,0.0161 0.07572,0.0141 0.110331,0.0301 0.03251,0.015 0.123267,0.096 0.161089,0.10948 0.02148,0.008 0.04561,0.001 0.06841,0.002 0.0468,0.0187 0.07327,-0.0475 0.02647,-0.0662 z" />
    <text
       xml:space="preserve"
       style="font-style:normal;font-variant:normal;font-weight:normal;font-stretch:normal;font-size:2.30659px;line-height:1.25;font-family:sans-serif;-inkscape-font-specification:sans-serif;fill:#800080;fill-opacity:1;stroke:none;stroke-width:0.0576648"
       x="-99.967072"
       y="183.44279"
       id="text1001"
       transform="scale(0.99384102,1.0061971)"><tspan
         sodipodi:role="line"
         id="tspan999"
         x="-99.967072"
         y="183.44279"
         style="font-style:normal;font-variant:normal;font-weight:normal;font-stretch:normal;font-family:sans-serif;-inkscape-font-specification:sans-serif;fill:#800080;stroke-width:0.0576648">旋转特效</tspan></text>
    <path
       style="fill:#800080;stroke:#000000;stroke-width:0.264583px;stroke-linecap:butt;stroke-linejoin:miter;stroke-opacity:1"
       d="m -60.381697,155.72619 v 44.5067"
       id="path1014" />
    <path
       style="fill:#800080;fill-opacity:1;stroke:#800080;stroke-width:0.264583;stroke-opacity:1"
       id="path1020"
       d="m -56.186797,163.49427 c -0.05939,0.01 -0.118089,0.0255 -0.178154,0.0288 -0.481886,0.0265 -0.589333,-0.0331 -1.158182,-0.0326 -0.381336,2.7e-4 -0.762093,0.0327 -1.143402,0.0371 -0.461532,0.005 -0.923108,-0.005 -1.384663,-0.008 -0.483383,0.009 -0.966766,0.0177 -1.450149,0.0266 -2.658274,-0.0646 -0.148154,-0.0299 -2.632999,0.007 -0.362069,0.005 -0.724207,-0.004 -1.08631,-0.006 -0.09927,0 -0.09927,0.14039 0,0.14039 v 0 c 0.362103,-0.0216 0.723675,-0.0558 1.08631,-0.0648 0.288547,-0.007 2.408148,0.0202 2.632999,0.0228 3.86022,-0.11681 -0.893736,-0.002 2.834812,-0.003 0.381386,-1.3e-4 0.762063,-0.0356 1.143402,-0.0417 0.443404,-0.007 0.893971,0.0439 1.336336,-0.004 0.07286,0 0.07286,-0.10305 0,-0.10305 z" />
    <path
       style="fill:#800080;fill-opacity:1;stroke:#800080;stroke-width:0.264583;stroke-opacity:1"
       id="path1022"
       d="m -64.842916,161.97275 c -0.07589,0.0169 -0.151775,0.0338 -0.22766,0.0506 -0.10232,0.045 -0.19924,0.10515 -0.306959,0.13499 -0.124347,0.0344 -0.257255,0.0272 -0.382995,0.0561 -0.131459,0.0302 -0.586187,0.19404 -0.719273,0.23563 -0.123108,0.0385 -0.247899,0.0713 -0.371851,0.10697 -0.902551,0.44004 0.108125,-0.02 -0.870381,0.32111 -0.23278,0.0812 -0.590108,0.27206 -0.81466,0.37972 -0.114474,0.0549 -0.23772,0.0931 -0.345673,0.1599 -0.07763,0.048 -0.136945,0.12078 -0.205419,0.18117 0.02193,0.0724 0.01847,0.15817 0.06582,0.21714 0.293336,0.36536 0.491459,0.30528 0.950349,0.43889 0.232011,0.0676 0.461042,0.14495 0.691677,0.21705 0.971753,0.30382 0.494048,0.17424 1.509961,0.40312 1.064548,0.16846 0.53949,0.0797 1.575308,0.26554 0.03866,0.007 0.04916,-0.0472 0.0105,-0.0547 v 0 c -1.03073,-0.20575 -0.509881,-0.0998 -1.562492,-0.31816 -0.25523,-0.0751 -0.51046,-0.15014 -0.765691,-0.22521 -0.257341,-0.0184 -0.520245,0.001 -0.772027,-0.0551 -0.235959,-0.0528 -0.448935,-0.17972 -0.67395,-0.26819 -0.09653,-0.038 -0.797258,-0.28663 -0.943049,-0.40964 -0.04232,-0.0357 -0.02913,-0.10686 -0.04369,-0.16028 0.06409,-0.0568 0.118959,-0.12616 0.192262,-0.17046 0.223461,-0.13503 0.513519,-0.19745 0.746736,-0.30466 0.141536,-0.0651 0.266187,-0.16487 0.410744,-0.22291 0.285814,-0.11475 0.609825,-0.1187 0.879041,-0.28461 0.185513,-0.0671 0.51943,-0.19521 0.71546,-0.23776 0.127767,-0.0277 0.261268,-0.024 0.388453,-0.0543 0.310804,-0.074 0.597064,-0.23416 0.903079,-0.32364 0.05547,-0.0238 0.02185,-0.10221 -0.03361,-0.0784 z" />
    <text
       xml:space="preserve"
       style="font-size:4.23333px;line-height:1.25;font-family:sans-serif;stroke-width:0.264583;stroke:none;fill:#800080;"
       x="-74.839279"
       y="160.54538"
       id="text1026"><tspan
         sodipodi:role="line"
         id="tspan1024"
         x="-74.839279"
         y="160.54538"
         style="stroke-width:0.264583;stroke:none;fill:#800080;">光标贴壁弹出</tspan></text>
    <rect
       style="fill:none;fill-opacity:1;stroke:#cccccc;stroke-width:0.263611;stroke-opacity:1"
       id="rect1112"
       width="21.612331"
       height="29.777016"
       x="-99.475441"
       y="149.76167" />
    <rect
       y="-11.22532"
       x="-11.759859"
       height="236.26627"
       width="320.72342"
       id="rect851"
       style="fill:none;stroke:#000000;stroke-width:0.965;stroke-miterlimit:4;stroke-dasharray:5.79,0.965;stroke-dashoffset:0" />
    <text
       id="text855"
       y="-14.967093"
       x="99.958801"
       style="font-size:12.7px;line-height:1.25;font-family:sans-serif;fill:#000000;fill-opacity:1;stroke-width:0.264583;"
       xml:space="preserve"><tspan
         rotate="0 0 0 0 0 0 0 0 0 0"
         style="font-size:12.7px;fill:#000000;fill-opacity:1;stroke-width:0.264583;"
         y="-14.967093"
         x="99.958801"
         id="tspan853"
         sodipodi:role="line">流程与信息汇总界面</tspan></text>
    <text
       id="text882"
       y="-14.665472"
       x="-120.19643"
       style="font-size:10.5833px;line-height:1.25;font-family:sans-serif;stroke-width:0.264583"
       xml:space="preserve"><tspan
         style="font-size:10.5833px;stroke-width:0.264583"
         y="-14.665472"
         x="-120.19643"
         id="tspan880"
         sodipodi:role="line">悬浮窗界面</tspan></text>
    <rect
       style="fill:none;stroke:#000000;stroke-width:0.620767;stroke-miterlimit:4;stroke-dasharray:3.7246, 0.620767;stroke-dashoffset:0"
       id="rect851-9"
       width="132.31871"
       height="236.98083"
       x="-158.10265"
       y="-11.529143" />
    <rect
       y="168.49689"
       x="-99.496559"
       height="2.7623684"
       width="21.633444"
       id="rect902"
       style="fill:#ececec;fill-opacity:1;stroke:#cccccc;stroke-width:0.0851007;stroke-miterlimit:4;stroke-dasharray:none;stroke-dashoffset:0" />
    <rect
       style="fill:#ececec;fill-opacity:1;stroke:#cccccc;stroke-width:0.0851007;stroke-miterlimit:4;stroke-dasharray:none;stroke-dashoffset:0"
       id="rect902-9"
       width="21.633444"
       height="2.7623684"
       x="-99.496559"
       y="160.21747" />
    <rect
       style="fill:#ececec;fill-opacity:1;stroke:#cccccc;stroke-width:0.0851007;stroke-miterlimit:4;stroke-dasharray:none;stroke-dashoffset:0"
       id="rect902-7"
       width="21.633444"
       height="2.7623684"
       x="-99.496559"
       y="176.77631" />
    <rect
       style="fill:#ececec;fill-opacity:1;stroke:#cccccc;stroke-width:0.0851007;stroke-miterlimit:4;stroke-dasharray:none;stroke-dashoffset:0"
       id="rect902-99"
       width="21.633444"
       height="2.7623684"
       x="-99.496559"
       y="154.69785" />
    <rect
       style="fill:#ececec;fill-opacity:1;stroke:#cccccc;stroke-width:0.087;stroke-miterlimit:4;stroke-dasharray:none;stroke-dashoffset:0"
       id="rect902-2"
       width="21.633444"
       height="2.8870459"
       x="-99.495613"
       y="165.73804" />
    <rect
       style="fill:#ececec;fill-opacity:1;stroke:#cccccc;stroke-width:0.0851007;stroke-miterlimit:4;stroke-dasharray:none;stroke-dashoffset:0"
       id="rect902-997"
       width="21.633444"
       height="2.7623684"
       x="-99.496559"
       y="174.01648" />
    <rect
       style="fill:#ececec;fill-opacity:1;stroke:#cccccc;stroke-width:0.0851007;stroke-miterlimit:4;stroke-dasharray:none;stroke-dashoffset:0"
       id="rect902-5"
       width="21.633444"
       height="2.7623684"
       x="-99.496559"
       y="162.97726" />
    <rect
       y="157.45766"
       x="-99.496559"
       height="2.7623684"
       width="21.633444"
       id="rect902-9-8"
       style="fill:#ececec;fill-opacity:1;stroke:#cccccc;stroke-width:0.0851006;stroke-miterlimit:4;stroke-dasharray:none;stroke-dashoffset:0" />
    <rect
       style="fill:#ececec;fill-opacity:1;stroke:#cccccc;stroke-width:0.0851006;stroke-miterlimit:4;stroke-dasharray:none;stroke-dashoffset:0"
       id="rect902-8"
       width="21.633444"
       height="2.7623684"
       x="-99.496559"
       y="171.2567" />
    <rect
       y="149.76167"
       x="-99.475441"
       height="4.9361725"
       width="21.612328"
       id="rect988"
       style="fill:#ececec;fill-opacity:1;stroke:#cccccc;stroke-width:0.087;stroke-miterlimit:4;stroke-dasharray:none;stroke-dashoffset:0;stroke-opacity:1" />
    <text
       id="text992"
       y="153.5013"
       x="-97.765709"
       style="font-size:3.70417px;line-height:1.25;font-family:sans-serif;stroke-width:0.264583"
       xml:space="preserve"><tspan
         style="font-size:3.70417px;stroke-width:0.264583"
         y="153.5013"
         x="-97.765709"
         id="tspan990"
         sodipodi:role="line">状态或流程</tspan></text>
    <path
       d="m -79.184727,175.97274 c 0.314302,0.40693 0.610185,0.82691 0.875586,1.26734 0.149463,0.23633 0.247978,0.49398 0.329914,0.7595 0,0 0.132893,-0.004 0.132893,-0.004 v 0 c -0.08367,-0.26674 -0.182007,-0.52586 -0.334577,-0.76248 -0.266353,-0.43781 -0.562782,-0.8546 -0.864063,-1.2689 0,0 -0.139753,0.009 -0.139753,0.009 z"
       id="path1017"
       style="fill:#800080;fill-opacity:1;stroke:#800080;stroke-width:0.087;stroke-miterlimit:4;stroke-dasharray:none;stroke-dashoffset:0;stroke-opacity:1" />
    <path
       d="m -78.295174,178.15566 c 0.204272,0.23421 0.407043,0.46965 0.603369,0.7108 0.08288,0.0962 0.180534,0.32976 0.365038,0.20755 0.04545,-0.0301 0.0319,-0.10452 0.04143,-0.15819 0.0273,-0.15375 0.0367,-0.3566 0.0473,-0.50935 0.02032,-0.36685 0.02666,-0.73427 0.03022,-1.1016 0,0 -0.135022,-3e-5 -0.135022,-3e-5 v 0 c 0.0016,0.367 -0.0011,0.7342 -0.02273,1.10068 -0.01214,0.1546 -0.02191,0.35189 -0.05452,0.50648 -0.01021,0.0484 -0.05624,0.0929 -0.04579,0.14127 0.0056,0.0259 0.07826,0.0374 0.07866,0.0109 0.0013,-0.0893 -0.196418,-0.10496 -0.17046,-0.20693 -0.19567,-0.23887 -0.397862,-0.47234 -0.595461,-0.70929 0,0 -0.142025,0.008 -0.142025,0.008 z"
       id="path1019"
       style="fill:#800080;fill-opacity:1;stroke:#800080;stroke-width:0.087;stroke-miterlimit:4;stroke-dasharray:none;stroke-dashoffset:0;stroke-opacity:1" />
    <rect
       y="159.15427"
       x="-117.6551"
       height="13.962716"
       width="21.696053"
       id="rect1112-8"
       style="fill:none;fill-opacity:1;stroke:#cccccc;stroke-width:0.180862;stroke-opacity:1" />
    <path
       d="m -83.803383,168.69835 c 0.0046,-0.18659 0.0077,-0.0376 -0.02527,-0.27455 -0.01087,-0.0781 -0.0078,-0.15864 -0.028,-0.23483 -0.02897,-0.10921 -0.0781,-0.21204 -0.118526,-0.31754 -0.04998,-0.13044 -0.08817,-0.26637 -0.152683,-0.39027 -0.081,-0.15556 -0.187907,-0.29619 -0.281863,-0.44428 -0.537641,-0.73618 -1.12825,-1.43624 -1.824329,-2.02869 -0.571968,-0.48682 -0.941908,-0.72647 -1.564695,-1.16765 -0.834464,-0.53613 -1.680155,-1.05678 -2.541127,-1.54952 -0.547963,-0.3136 -1.108477,-0.60341 -1.654826,-0.91996 -0.418793,-0.23809 -0.214389,-0.13133 -0.61136,-0.3238 0,0 -0.157697,0.0172 -0.157697,0.0172 v 0 c 0.375592,0.20132 0.174361,0.0933 0.603621,0.32431 1.432607,0.77677 2.865064,1.55629 4.219858,2.46536 0.285062,0.19953 0.577278,0.3892 0.855181,0.59858 0.313036,0.23584 0.988481,0.80952 1.281636,1.0993 0.459708,0.45442 0.850641,0.97427 1.232625,1.49337 0.188889,0.3801 0.384241,0.73947 0.506593,1.14728 0.02302,0.0767 0.04983,0.1532 0.06052,0.23259 0.0019,0.0144 -0.01109,0.22708 -0.01349,0.2679 0,0 0.213823,0.005 0.213823,0.005 z"
       id="path1027"
       style="fill:#800080;fill-opacity:1;stroke:#800080;stroke-width:0.087;stroke-miterlimit:4;stroke-dasharray:none;stroke-dashoffset:0;stroke-opacity:1" />
    <path
       d="m -91.762423,160.27921 c -0.388659,0.0131 -0.77629,-0.0266 -1.164621,-0.0398 -0.186492,-0.002 -0.743186,-0.051 -0.866617,-0.004 -0.0513,0.0194 -0.0542,0.10734 -0.03872,0.15997 0.05177,0.17594 0.445492,0.67031 0.507129,0.75341 0.657855,0.79226 1.415868,1.49355 2.181527,2.17909 0,0 0.159142,-0.0134 0.159142,-0.0134 v 0 c -0.199346,-0.17057 -0.40535,-0.33364 -0.598036,-0.51169 -0.196342,-0.18143 -0.37992,-0.37621 -0.568211,-0.56598 -0.679183,-0.68451 -0.429305,-0.41296 -0.999302,-1.09939 -0.109019,-0.14783 -0.224676,-0.29099 -0.327054,-0.44349 -0.116263,-0.17317 -0.229325,-0.25258 -0.129114,-0.42993 0.01677,-0.0297 0.419179,0.003 0.489318,0.005 0.386225,0.0183 0.77221,0.0485 1.159158,0.0417 0,0 0.195397,-0.0309 0.195397,-0.0309 z"
       id="path1033"
       style="fill:#800080;fill-opacity:1;stroke:#800080;stroke-width:0.087;stroke-miterlimit:4;stroke-dasharray:none;stroke-dashoffset:0;stroke-opacity:1" />
    <text
       transform="scale(0.98611823,1.0140772)"
       id="text1037"
       y="169.2972"
       x="-85.514038"
       style="font-size:2.51599px;line-height:1.25;font-family:sans-serif;fill:#800080;stroke-width:0.104833"
       xml:space="preserve"><tspan
         style="fill:#800080;stroke-width:0.104833"
         y="169.2972"
         x="-85.514038"
         id="tspan1035"
         sodipodi:role="line">右键</tspan><tspan
         id="tspan1039"
         style="fill:#800080;stroke-width:0.104833"
         y="172.50555"
         x="-85.514038"
         sodipodi:role="line">调用</tspan></text>
    <rect
       style="fill:#ececec;fill-opacity:1;stroke:#cccccc;stroke-width:0.0851006;stroke-miterlimit:4;stroke-dasharray:none;stroke-dashoffset:0"
       id="rect902-90"
       width="21.633444"
       height="2.7623684"
       x="-117.63529"
       y="161.95497" />
    <rect
       y="170.23439"
       x="-117.63529"
       height="2.7623684"
       width="21.633444"
       id="rect902-7-8"
       style="fill:#ececec;fill-opacity:1;stroke:#cccccc;stroke-width:0.0851006;stroke-miterlimit:4;stroke-dasharray:none;stroke-dashoffset:0" />
    <rect
       y="159.19612"
       x="-117.63435"
       height="2.8870459"
       width="21.633444"
       id="rect902-2-3"
       style="fill:#ececec;fill-opacity:1;stroke:#cccccc;stroke-width:0.087;stroke-miterlimit:4;stroke-dasharray:none;stroke-dashoffset:0" />
    <rect
       y="167.47456"
       x="-117.63529"
       height="2.7623684"
       width="21.633444"
       id="rect902-997-7"
       style="fill:#ececec;fill-opacity:1;stroke:#cccccc;stroke-width:0.0851006;stroke-miterlimit:4;stroke-dasharray:none;stroke-dashoffset:0" />
    <rect
       y="164.71478"
       x="-117.63529"
       height="2.7623684"
       width="21.633444"
       id="rect902-8-5"
       style="fill:#ececec;fill-opacity:1;stroke:#cccccc;stroke-width:0.0851006;stroke-miterlimit:4;stroke-dasharray:none;stroke-dashoffset:0" />
  </g>
</svg>
